<svg width="320" height="120" viewBox="0 0 320 120" fill="none" xmlns="http://www.w3.org/2000/svg">
<path d="M25.1205 63H17.6659L34.4159 16.4545H42.5295L59.2795 63H51.825L38.6659 24.9091H38.3023L25.1205 63ZM26.3705 44.7727H50.5523V50.6818H26.3705V44.7727ZM85.2614 76.0909V57.5682H84.8523C84.4432 58.3106 83.8523 59.1591 83.0795 60.1136C82.322 61.0682 81.2765 61.9015 79.9432 62.6136C78.6098 63.3258 76.8826 63.6818 74.7614 63.6818C71.9432 63.6818 69.428 62.9621 67.2159 61.5227C65.0189 60.0682 63.2917 58 62.0341 55.3182C60.7917 52.6212 60.1705 49.3864 60.1705 45.6136C60.1705 41.8409 60.7992 38.6136 62.0568 35.9318C63.3295 33.25 65.072 31.197 67.2841 29.7727C69.4962 28.3485 72.0038 27.6364 74.8068 27.6364C76.9735 27.6364 78.7159 28 80.0341 28.7273C81.3674 29.4394 82.3977 30.2727 83.125 31.2273C83.8674 32.1818 84.4432 33.0227 84.8523 33.75H85.4205V28.0909H92.0568V76.0909H85.2614ZM76.2614 57.8864C78.2159 57.8864 79.8674 57.3712 81.2159 56.3409C82.5795 55.2955 83.6098 53.8485 84.3068 52C85.0189 50.1515 85.375 48 85.375 45.5455C85.375 43.1212 85.0265 41 84.3295 39.1818C83.6326 37.3636 82.6098 35.947 81.2614 34.9318C79.9129 33.9167 78.2462 33.4091 76.2614 33.4091C74.2159 33.4091 72.5114 33.9394 71.1477 35C69.7841 36.0606 68.7538 37.5076 68.0568 39.3409C67.375 41.1742 67.0341 43.2424 67.0341 45.5455C67.0341 47.8788 67.3826 49.9773 68.0795 51.8409C68.7765 53.7045 69.8068 55.1818 71.1705 56.2727C72.5492 57.3485 74.2462 57.8864 76.2614 57.8864ZM120.107 48.5227V28.0909H126.925V63H120.243V56.9545H119.88C119.077 58.8182 117.789 60.3712 116.016 61.6136C114.258 62.8409 112.069 63.4545 109.448 63.4545C107.205 63.4545 105.22 62.9621 103.493 61.9773C101.781 60.9773 100.433 59.5 99.4477 57.5455C98.478 55.5909 97.9932 53.1742 97.9932 50.2955V28.0909H104.789V49.4773C104.789 51.8561 105.448 53.75 106.766 55.1591C108.084 56.5682 109.796 57.2727 111.902 57.2727C113.175 57.2727 114.44 56.9545 115.698 56.3182C116.97 55.6818 118.023 54.7197 118.857 53.4318C119.705 52.1439 120.122 50.5076 120.107 48.5227ZM143.015 63.7727C140.803 63.7727 138.803 63.3636 137.015 62.5455C135.227 61.7121 133.81 60.5076 132.765 58.9318C131.734 57.3561 131.219 55.4242 131.219 53.1364C131.219 51.1667 131.598 49.5455 132.356 48.2727C133.113 47 134.136 45.9924 135.424 45.25C136.712 44.5076 138.151 43.947 139.742 43.5682C141.333 43.1894 142.954 42.9015 144.606 42.7045C146.697 42.4621 148.394 42.2652 149.697 42.1136C151 41.947 151.947 41.6818 152.538 41.3182C153.128 40.9545 153.424 40.3636 153.424 39.5455V39.3864C153.424 37.4015 152.863 35.8636 151.742 34.7727C150.636 33.6818 148.984 33.1364 146.788 33.1364C144.5 33.1364 142.697 33.6439 141.378 34.6591C140.075 35.6591 139.174 36.7727 138.674 38L132.288 36.5455C133.045 34.4242 134.151 32.7121 135.606 31.4091C137.075 30.0909 138.765 29.1364 140.674 28.5455C142.583 27.9394 144.591 27.6364 146.697 27.6364C148.091 27.6364 149.568 27.803 151.128 28.1364C152.704 28.4545 154.174 29.0455 155.538 29.9091C156.916 30.7727 158.045 32.0076 158.924 33.6136C159.803 35.2045 160.242 37.2727 160.242 39.8182V63H153.606V58.2273H153.333C152.894 59.1061 152.234 59.9697 151.356 60.8182C150.477 61.6667 149.348 62.3712 147.969 62.9318C146.591 63.4924 144.939 63.7727 143.015 63.7727ZM144.492 58.3182C146.371 58.3182 147.977 57.947 149.31 57.2045C150.659 56.4621 151.681 55.4924 152.378 54.2955C153.091 53.0833 153.447 51.7879 153.447 50.4091V45.9091C153.204 46.1515 152.734 46.3788 152.038 46.5909C151.356 46.7879 150.575 46.9621 149.697 47.1136C148.818 47.25 147.962 47.3788 147.128 47.5C146.295 47.6061 145.598 47.697 145.038 47.7727C143.719 47.9394 142.515 48.2197 141.424 48.6136C140.348 49.0076 139.484 49.5758 138.833 50.3182C138.197 51.0455 137.878 52.0152 137.878 53.2273C137.878 54.9091 138.5 56.1818 139.742 57.0455C140.984 57.8939 142.568 58.3182 144.492 58.3182ZM192.025 28.6818C191.783 26.5303 190.783 24.8636 189.025 23.6818C187.267 22.4848 185.055 21.8864 182.389 21.8864C180.48 21.8864 178.828 22.1894 177.434 22.7955C176.04 23.3864 174.957 24.2045 174.184 25.25C173.427 26.2803 173.048 27.4545 173.048 28.7727C173.048 29.8788 173.305 30.8333 173.82 31.6364C174.351 32.4394 175.04 33.1136 175.889 33.6591C176.752 34.1894 177.677 34.6364 178.661 35C179.646 35.3485 180.593 35.6364 181.502 35.8636L186.048 37.0455C187.533 37.4091 189.055 37.9015 190.616 38.5227C192.177 39.1439 193.623 39.9621 194.957 40.9773C196.29 41.9924 197.366 43.25 198.184 44.75C199.017 46.25 199.434 48.0455 199.434 50.1364C199.434 52.7727 198.752 55.1136 197.389 57.1591C196.04 59.2045 194.078 60.8182 191.502 62C188.942 63.1818 185.843 63.7727 182.207 63.7727C178.722 63.7727 175.707 63.2197 173.161 62.1136C170.616 61.0076 168.623 59.4394 167.184 57.4091C165.745 55.3636 164.949 52.9394 164.798 50.1364H171.843C171.98 51.8182 172.525 53.2197 173.48 54.3409C174.449 55.447 175.684 56.2727 177.184 56.8182C178.699 57.3485 180.358 57.6136 182.161 57.6136C184.146 57.6136 185.911 57.303 187.457 56.6818C189.017 56.0455 190.245 55.1667 191.139 54.0455C192.033 52.9091 192.48 51.5833 192.48 50.0682C192.48 48.6894 192.086 47.5606 191.298 46.6818C190.525 45.803 189.472 45.0758 188.139 44.5C186.82 43.9242 185.328 43.4167 183.661 42.9773L178.161 41.4773C174.434 40.4621 171.48 38.9697 169.298 37C167.131 35.0303 166.048 32.4242 166.048 29.1818C166.048 26.5 166.775 24.1591 168.23 22.1591C169.684 20.1591 171.654 18.6061 174.139 17.5C176.623 16.3788 179.427 15.8182 182.548 15.8182C185.699 15.8182 188.48 16.3712 190.889 17.4773C193.313 18.5833 195.222 20.1061 196.616 22.0455C198.01 23.9697 198.737 26.1818 198.798 28.6818H192.025ZM208.376 76.0909C207.361 76.0909 206.437 76.0076 205.603 75.8409C204.77 75.6894 204.149 75.5227 203.74 75.3409L205.376 69.7727C206.619 70.1061 207.725 70.25 208.694 70.2045C209.664 70.1591 210.52 69.7955 211.262 69.1136C212.02 68.4318 212.687 67.3182 213.262 65.7727L214.103 63.4545L201.331 28.0909H208.603L217.444 55.1818H217.808L226.649 28.0909H233.944L219.558 67.6591C218.891 69.4773 218.043 71.0152 217.012 72.2727C215.982 73.5455 214.755 74.5 213.331 75.1364C211.906 75.7727 210.255 76.0909 208.376 76.0909ZM243.926 42.2727V63H237.131V28.0909H243.653V33.7727H244.085C244.888 31.9242 246.146 30.4394 247.858 29.3182C249.585 28.197 251.759 27.6364 254.381 27.6364C256.759 27.6364 258.843 28.1364 260.631 29.1364C262.419 30.1212 263.805 31.5909 264.79 33.5455C265.775 35.5 266.267 37.9167 266.267 40.7955V63H259.472V41.6136C259.472 39.0833 258.813 37.1061 257.494 35.6818C256.176 34.2424 254.366 33.5227 252.062 33.5227C250.487 33.5227 249.085 33.8636 247.858 34.5455C246.646 35.2273 245.684 36.2273 244.972 37.5455C244.275 38.8485 243.926 40.4242 243.926 42.2727ZM286.885 63.7045C283.506 63.7045 280.597 62.9394 278.158 61.4091C275.734 59.8636 273.87 57.7348 272.567 55.0227C271.264 52.3106 270.612 49.2045 270.612 45.7045C270.612 42.1591 271.279 39.0303 272.612 36.3182C273.946 33.5909 275.825 31.4621 278.249 29.9318C280.673 28.4015 283.529 27.6364 286.817 27.6364C289.469 27.6364 291.832 28.1288 293.908 29.1136C295.984 30.0833 297.658 31.447 298.931 33.2045C300.219 34.9621 300.984 37.0152 301.226 39.3636H294.612C294.249 37.7273 293.416 36.3182 292.112 35.1364C290.825 33.9545 289.097 33.3636 286.931 33.3636C285.037 33.3636 283.378 33.8636 281.953 34.8636C280.544 35.8485 279.446 37.2576 278.658 39.0909C277.87 40.9091 277.476 43.0606 277.476 45.5455C277.476 48.0909 277.862 50.2879 278.635 52.1364C279.408 53.9848 280.499 55.4167 281.908 56.4318C283.332 57.447 285.006 57.9545 286.931 57.9545C288.219 57.9545 289.385 57.7197 290.431 57.25C291.491 56.7652 292.378 56.0758 293.09 55.1818C293.817 54.2879 294.325 53.2121 294.612 51.9545H301.226C300.984 54.2121 300.249 56.2273 299.022 58C297.794 59.7727 296.15 61.1667 294.09 62.1818C292.044 63.197 289.643 63.7045 286.885 63.7045Z" fill="black"/>
<path d="M23.0984 91.5455V109H20.9847V91.5455H23.0984ZM53.1772 91.5455V109H51.1317L41.6204 95.2955H41.4499V109H39.3363V91.5455H41.3817L50.9272 105.284H51.0977V91.5455H53.1772ZM83.2475 91.5455V109H81.2021L71.6907 95.2955H71.5202V109H69.4066V91.5455H71.4521L80.9975 105.284H81.168V91.5455H83.2475ZM114.204 100.273C114.204 102.114 113.872 103.705 113.207 105.045C112.542 106.386 111.63 107.42 110.471 108.148C109.312 108.875 107.988 109.239 106.5 109.239C105.011 109.239 103.687 108.875 102.528 108.148C101.369 107.42 100.457 106.386 99.7923 105.045C99.1275 103.705 98.7951 102.114 98.7951 100.273C98.7951 98.4318 99.1275 96.8409 99.7923 95.5C100.457 94.1591 101.369 93.125 102.528 92.3977C103.687 91.6705 105.011 91.3068 106.5 91.3068C107.988 91.3068 109.312 91.6705 110.471 92.3977C111.63 93.125 112.542 94.1591 113.207 95.5C113.872 96.8409 114.204 98.4318 114.204 100.273ZM112.159 100.273C112.159 98.7614 111.906 97.4858 111.4 96.446C110.9 95.4062 110.221 94.6193 109.363 94.0852C108.511 93.5511 107.556 93.2841 106.5 93.2841C105.443 93.2841 104.485 93.5511 103.627 94.0852C102.775 94.6193 102.096 95.4062 101.591 96.446C101.091 97.4858 100.841 98.7614 100.841 100.273C100.841 101.784 101.091 103.06 101.591 104.099C102.096 105.139 102.775 105.926 103.627 106.46C104.485 106.994 105.443 107.261 106.5 107.261C107.556 107.261 108.511 106.994 109.363 106.46C110.221 105.926 110.9 105.139 111.4 104.099C111.906 103.06 112.159 101.784 112.159 100.273ZM129.654 91.5455L134.836 106.239H135.04L140.222 91.5455H142.438L136.029 109H133.847L127.438 91.5455H129.654ZM156.373 109H154.157L160.566 91.5455H162.748L169.157 109H166.941L161.725 94.3068H161.588L156.373 109ZM157.191 102.182H166.123V104.057H157.191V102.182ZM180.882 93.4205V91.5455H193.973V93.4205H188.484V109H186.37V93.4205H180.882ZM211.348 91.5455V109H209.235V91.5455H211.348ZM242.314 100.273C242.314 102.114 241.981 103.705 241.316 105.045C240.652 106.386 239.74 107.42 238.581 108.148C237.422 108.875 236.098 109.239 234.609 109.239C233.12 109.239 231.797 108.875 230.637 108.148C229.478 107.42 228.566 106.386 227.902 105.045C227.237 103.705 226.904 102.114 226.904 100.273C226.904 98.4318 227.237 96.8409 227.902 95.5C228.566 94.1591 229.478 93.125 230.637 92.3977C231.797 91.6705 233.12 91.3068 234.609 91.3068C236.098 91.3068 237.422 91.6705 238.581 92.3977C239.74 93.125 240.652 94.1591 241.316 95.5C241.981 96.8409 242.314 98.4318 242.314 100.273ZM240.268 100.273C240.268 98.7614 240.015 97.4858 239.51 96.446C239.01 95.4062 238.331 94.6193 237.473 94.0852C236.62 93.5511 235.666 93.2841 234.609 93.2841C233.552 93.2841 232.595 93.5511 231.737 94.0852C230.885 94.6193 230.206 95.4062 229.7 96.446C229.2 97.4858 228.95 98.7614 228.95 100.273C228.95 101.784 229.2 103.06 229.7 104.099C230.206 105.139 230.885 105.926 231.737 106.46C232.595 106.994 233.552 107.261 234.609 107.261C235.666 107.261 236.62 106.994 237.473 106.46C238.331 105.926 239.01 105.139 239.51 104.099C240.015 103.06 240.268 101.784 240.268 100.273ZM271.708 91.5455V109H269.663L260.152 95.2955H259.981V109H257.868V91.5455H259.913L269.458 105.284H269.629V91.5455H271.708ZM297.483 95.9091C297.381 95.0455 296.966 94.375 296.239 93.8977C295.512 93.4205 294.62 93.1818 293.563 93.1818C292.79 93.1818 292.114 93.3068 291.534 93.5568C290.961 93.8068 290.512 94.1506 290.188 94.5881C289.87 95.0256 289.711 95.5227 289.711 96.0795C289.711 96.5455 289.821 96.946 290.043 97.2812C290.27 97.6108 290.56 97.8864 290.912 98.108C291.265 98.3239 291.634 98.5028 292.02 98.6449C292.407 98.7812 292.762 98.892 293.086 98.9773L294.858 99.4545C295.313 99.5739 295.819 99.7386 296.375 99.9489C296.938 100.159 297.475 100.446 297.986 100.81C298.503 101.168 298.929 101.628 299.265 102.19C299.6 102.753 299.767 103.443 299.767 104.261C299.767 105.205 299.52 106.057 299.026 106.818C298.537 107.58 297.821 108.185 296.878 108.634C295.941 109.082 294.801 109.307 293.461 109.307C292.211 109.307 291.128 109.105 290.213 108.702C289.304 108.298 288.588 107.736 288.066 107.014C287.549 106.293 287.256 105.455 287.188 104.5H289.37C289.426 105.159 289.648 105.705 290.034 106.136C290.426 106.562 290.921 106.881 291.517 107.091C292.12 107.295 292.767 107.398 293.461 107.398C294.267 107.398 294.992 107.267 295.634 107.006C296.276 106.739 296.784 106.369 297.159 105.898C297.534 105.42 297.722 104.864 297.722 104.227C297.722 103.648 297.56 103.176 297.236 102.812C296.912 102.449 296.486 102.153 295.958 101.926C295.429 101.699 294.858 101.5 294.245 101.33L292.097 100.716C290.733 100.324 289.654 99.7642 288.858 99.0369C288.063 98.3097 287.665 97.358 287.665 96.1818C287.665 95.2045 287.929 94.3523 288.458 93.625C288.992 92.892 289.708 92.3239 290.605 91.9205C291.509 91.5114 292.517 91.3068 293.631 91.3068C294.756 91.3068 295.756 91.5085 296.631 91.9119C297.506 92.3097 298.199 92.8551 298.711 93.5483C299.228 94.2415 299.5 95.0284 299.529 95.9091H297.483Z" fill="black"/>
</svg>
